<?xml version="1.0" standalone="no"?>
<!DOCTYPE svg PUBLIC "-//W3C//DTD SVG 20010904//EN"
 "http://www.w3.org/TR/2001/REC-SVG-20010904/DTD/svg10.dtd">
<svg version="1.0" xmlns="http://www.w3.org/2000/svg"
 width="397.000000pt" height="397.000000pt" viewBox="0 0 397.000000 397.000000"
 preserveAspectRatio="xMidYMid meet">
<metadata>
Created by potrace 1.14, written by Peter Selinger 2001-2017
</metadata>
<g transform="translate(0.000000,397.000000) scale(0.100000,-0.100000)"
fill="#000000" stroke="none">
<path d="M1947 3964 c-1 -1 -47 -4 -102 -8 -476 -31 -915 -233 -1260 -580
-200 -201 -334 -406 -440 -671 -48 -121 -99 -306 -110 -400 -3 -32 -8 -62 -10
-65 -6 -10 -16 -158 -16 -250 -1 -106 7 -217 21 -300 5 -30 12 -71 15 -90 21
-129 89 -329 165 -485 197 -404 528 -729 934 -920 314 -148 670 -212 1006
-181 130 12 163 16 250 36 47 11 96 23 110 26 117 26 374 137 510 221 258 160
511 414 663 669 118 197 228 493 253 679 3 28 7 52 9 55 7 11 18 191 18 280 0
226 -32 424 -103 640 -34 101 -141 330 -184 393 -14 21 -26 42 -26 47 0 6 -4
10 -8 10 -5 0 -14 12 -21 26 -32 71 -242 302 -381 419 -141 120 -396 264 -580
330 -88 31 -276 80 -340 89 -25 3 -56 8 -70 11 -36 7 -297 23 -303 19z"/>
</g>
</svg>
